<?xml version="1.0" standalone="no"?>
<!DOCTYPE svg PUBLIC "-//W3C//DTD SVG 1.1//EN"
  "http://www.w3.org/Graphics/SVG/1.1/DTD/svg11.dtd">
<svg width="203mm" height="155.99999999999997mm" viewBox="-112 -77.99999999999999 203 155.99999999999997" xmlns="http://www.w3.org/2000/svg" version="1.1">
	<title>svgOutput</title>
	<desc>made with tinkercad</desc>
<path d="M -111 76.99999999999999 L -111 24.999999999999993 L -108.00299835205078 24.999999999999993 L 14.003000259399414 24.999999999999993 L 58.00299835205078 24.999999999999993 L 63.99800109863281 24.999999999999993 L 68.49800109863281 24.999999999999993 L 68.49800109863281 25.997999191284173 L 63.99800109863281 25.997999191284173 L 63.99800109863281 72.00299835205077 L 84.00299835205078 72.00299835205077 L 84.00299835205078 25.997999191284173 L 79.50299835205078 25.997999191284173 L 79.50299835205078 24.999999999999993 L 84.00299835205078 24.999999999999993 L 89 24.999999999999993 L 89 76.99999999999999 L 84.00299835205078 76.99999999999999 L 63.99800109863281 76.99999999999999 L 58.00299835205078 76.99999999999999 L 14.003000259399414 76.99999999999999 L -108.00299835205078 76.99999999999999 L -111 76.99999999999999 M 14.003000259399414 69.50299835205077 L 58.00299835205078 69.50299835205077 L 58.00299835205078 32.498001098632805 L 14.003000259399414 32.498001098632805 L 14.003000259399414 30.197999954223626 L -108.00299835205078 30.197999954223626 L -108.00299835205078 71.80300140380858 L 14.003000259399414 71.80300140380858 L 14.003000259399414 69.50299835205077 M -110 -24.999999999999993 L -110 -76.99999999999999 L -104.00299835205078 -76.99999999999999 L 82.00299835205078 -76.99999999999999 L 90 -76.99999999999999 L 90 -24.999999999999993 L 82.00299835205078 -24.999999999999993 L -104.00299835205078 -24.999999999999993 L -110 -24.999999999999993 M -104.00299835205078 -72.6689987182617 L -104.00299835205078 -31.063999176025384 L 82.00299835205078 -31.063999176025384 L 82.00299835205078 -72.6689987182617 L -104.00299835205078 -72.6689987182617 z" fill="none" stroke="rgb(255,0,0)" stroke-width="0.001mm" />
</svg>