<?xml version="1.0" standalone="no"?>
<!DOCTYPE svg PUBLIC "-//W3C//DTD SVG 1.1//EN"
  "http://www.w3.org/Graphics/SVG/1.1/DTD/svg11.dtd">
<svg width="127.81499862670898mm" height="127.99999999999997mm" viewBox="-63 -75.99999999999999 127.81499862670898 127.99999999999997" xmlns="http://www.w3.org/2000/svg" version="1.1">
	<title>svgOutput</title>
	<desc>made with tinkercad</desc>
<path d="M -59.86600112915039 -69.8980026245117 L -59.5 -70.30208587646483 L -59.47200012207031 -70.33300018310545 L -59.04800033569336 -70.75499725341795 L -58.595001220703125 -71.16100311279295 L -58.11399841308594 -71.55100250244139 L -57.606998443603516 -71.9250030517578 L -57.34400177001953 -72.09983825683592 L -57.073001861572266 -72.27999877929686 L -56.51599884033203 -72.6169967651367 L -55.935001373291016 -72.93399810791014 L -55.33399963378906 -73.23000335693358 L -54.71200180053711 -73.50599670410155 L -54.07099914550781 -73.76000213623045 L -53.41299819946289 -73.9919967651367 L -52.7400016784668 -74.20099639892577 L -52.053001403808594 -74.38600158691405 L -51.354000091552734 -74.54799652099608 L -50.64500045776367 -74.68499755859374 L -49.92599868774414 -74.79799652099608 L -49.20100021362305 -74.88600158691405 L -49.152000427246094 -74.89022064208983 L -48.50299835205078 -74.94615936279295 L -48.470001220703125 -74.94899749755858 L -47.736000061035156 -74.98699951171874 L -47 -74.99999999999999 L -46.263999938964844 -74.98699951171874 L -45.529998779296875 -74.94899749755858 L -45.49800109863281 -74.9462432861328 L -44.79899978637695 -74.88600158691405 L -44.07400131225586 -74.79799652099608 L -43.35499954223633 -74.68499755859374 L -42.645999908447266 -74.54799652099608 L -41.946998596191406 -74.38600158691405 L -41.2599983215332 -74.20099639892577 L -40.959999084472656 -74.10783386230467 L -40.58700180053711 -73.9919967651367 L -39.92900085449219 -73.76000213623045 L -39.848243713378906 -73.72799682617186 L -39.28799819946289 -73.50599670410155 L -38.66600036621094 -73.23000335693358 L -38.064998626708984 -72.93399810791014 L -37.48400115966797 -72.6169967651367 L -36.926998138427734 -72.27999877929686 L -36.393001556396484 -71.9250030517578 L -35.88600158691406 -71.55100250244139 L -35.404998779296875 -71.16100311279295 L -34.95199966430664 -70.75499725341795 L -34.52799987792969 -70.33300018310545 L -34.13399887084961 -69.8980026245117 L -33.770999908447266 -69.44999694824217 L -33.439998626708984 -68.98899841308592 L -33.141998291015625 -68.5179977416992 L -32.87699890136719 -68.03700256347655 L -32.768001556396484 -67.80625915527342 L -32.645999908447266 -67.54799652099608 L -32.45000076293945 -67.05100250244139 L -32.28799819946289 -66.54799652099608 L -32.1619987487793 -66.04100036621092 L -32.071998596191406 -65.52899932861327 L -32.018001556396484 -65.01499938964842 L -32.01747512817383 -64.99999999999999 L -32 -64.99999999999999 L -32 -28.999999999999993 L -32 50.999999999999986 L -59.5 50.999999999999986 L -62 50.999999999999986 L -62 -64.99999999999999 L -61.983577728271484 -64.99999999999999 L -61.98252487182617 -64.99999999999999 L -61.981998443603516 -65.01499938964842 L -61.928001403808594 -65.52899932861327 L -61.9267692565918 -65.53600311279295 L -61.8380012512207 -66.04100036621092 L -61.71200180053711 -66.54799652099608 L -61.54999923706055 -67.05100250244139 L -61.354000091552734 -67.54799652099608 L -61.12300109863281 -68.03700256347655 L -60.858001708984375 -68.5179977416992 L -60.560001373291016 -68.98899841308592 L -60.229000091552734 -69.44999694824217 L -59.86600112915039 -69.8980026245117 M -15 50.999999999999986 L -15 -28.999999999999993 L -15 -53.999999999999986 L -15 -57.34400177001952 L -15 -61.43999862670897 L -15 -64.49999999999999 L -15 -64.84366607666014 L -15 -64.99999999999999 L -14.983575820922852 -64.99999999999999 L -14.982523918151855 -64.99999999999999 L -14.982000350952148 -65.01499938964842 L -14.928000450134277 -65.52899932861327 L -14.926769256591797 -65.53600311279295 L -14.838000297546387 -66.04100036621092 L -14.711999893188477 -66.54799652099608 L -14.550000190734863 -67.05100250244139 L -14.354000091552734 -67.54799652099608 L -14.123000144958496 -68.03700256347655 L -13.857999801635742 -68.5179977416992 L -13.5600004196167 -68.98899841308592 L -13.229000091552734 -69.44999694824217 L -13.081531524658203 -69.63200378417967 L -12.866000175476074 -69.8980026245117 L -12.5 -70.30208587646483 L -12.472000122070312 -70.33300018310545 L -12.04800033569336 -70.75499725341795 L -11.595000267028809 -71.16100311279295 L -11.11400032043457 -71.55100250244139 L -10.607000350952148 -71.9250030517578 L -10.072999954223633 -72.27999877929686 L -9.515999794006348 -72.6169967651367 L -8.9350004196167 -72.93399810791014 L -8.333999633789062 -73.23000335693358 L -8.192000389099121 -73.29300689697264 L -7.711999893188477 -73.50599670410155 L -7.071000099182129 -73.76000213623045 L -6.413000106811523 -73.9919967651367 L -5.739999771118164 -74.20099639892577 L -5.052999973297119 -74.38600158691405 L -4.354000091552734 -74.54799652099608 L -3.6449999809265137 -74.68499755859374 L -2.9260001182556152 -74.79799652099608 L -2.2009999752044678 -74.88600158691405 L -1.503000020980835 -74.94615936279295 L -1.4700000286102295 -74.94899749755858 L -0.7360000014305115 -74.98699951171874 L 5.731215740704954e-13 -74.99999999999999 L 0.7360000014305115 -74.98699951171874 L 1.4700000286102295 -74.94899749755858 L 1.503000020980835 -74.94615936279295 L 2.2009999752044678 -74.88600158691405 L 2.9260001182556152 -74.79799652099608 L 3.6449999809265137 -74.68499755859374 L 4.354000091552734 -74.54799652099608 L 5.052999973297119 -74.38600158691405 L 5.739999771118164 -74.20099639892577 L 6.413000106811523 -73.9919967651367 L 7.071000099182129 -73.76000213623045 L 7.711999893188477 -73.50599670410155 L 8.192000389099121 -73.29300689697264 L 8.333999633789062 -73.23000335693358 L 8.9350004196167 -72.93399810791014 L 9.515999794006348 -72.6169967651367 L 10.072999954223633 -72.27999877929686 L 10.607000350952148 -71.9250030517578 L 11.11400032043457 -71.55100250244139 L 11.595000267028809 -71.16100311279295 L 12.04800033569336 -70.75499725341795 L 12.472000122070312 -70.33300018310545 L 12.5 -70.30208587646483 L 12.866000175476074 -69.8980026245117 L 13.081531524658203 -69.63200378417967 L 13.229000091552734 -69.44999694824217 L 13.5600004196167 -68.98899841308592 L 13.857999801635742 -68.5179977416992 L 14.123000144958496 -68.03700256347655 L 14.354000091552734 -67.54799652099608 L 14.550000190734863 -67.05100250244139 L 14.711999893188477 -66.54799652099608 L 14.838000297546387 -66.04100036621092 L 14.926769256591797 -65.53600311279295 L 14.928000450134277 -65.52899932861327 L 14.982000350952148 -65.01499938964842 L 14.982523918151855 -64.99999999999999 L 15 -64.99999999999999 L 15 -64.49999999999999 L 15 -64.15633392333983 L 15 -63.88059997558592 L 15 -63.610858917236314 L 15 -63.34622192382811 L 15 -63.09007263183592 L 15 -62.81950759887694 L 15 -61.43999862670897 L 15 -57.34400177001952 L 15 -53.999999999999986 L 15 -28.999999999999993 L 15 7.460000038146971 L 15 50.999999999999986 L -12.5 50.999999999999986 L -12.503000259399414 50.999999999999986 L -15 50.999999999999986 M 33.814998626708984 50.999999999999986 L 33.814998626708984 -28.999999999999993 L 33.814998626708984 -53.999999999999986 L 33.814998626708984 -57.34400177001952 L 33.814998626708984 -61.43999862670897 L 33.814998626708984 -64.49999999999999 L 33.814998626708984 -64.84366607666014 L 33.814998626708984 -64.99999999999999 L 33.831424713134766 -64.99999999999999 L 33.83247756958008 -64.99999999999999 L 33.83300018310547 -65.01499938964842 L 33.887001037597656 -65.52899932861327 L 33.88822937011719 -65.53600311279295 L 33.97700119018555 -66.04100036621092 L 34.10300064086914 -66.54799652099608 L 34.26499938964844 -67.05100250244139 L 34.46099853515625 -67.54799652099608 L 34.69200134277344 -68.03700256347655 L 34.957000732421875 -68.5179977416992 L 35.255001068115234 -68.98899841308592 L 35.58599853515625 -69.44999694824217 L 35.73346710205078 -69.63200378417967 L 35.94900131225586 -69.8980026245117 L 36.34299850463867 -70.33300018310545 L 36.766998291015625 -70.75499725341795 L 37.220001220703125 -71.16100311279295 L 37.70100021362305 -71.55100250244139 L 38.20800018310547 -71.9250030517578 L 38.742000579833984 -72.27999877929686 L 39.29899978637695 -72.6169967651367 L 39.54999923706055 -72.75395202636717 L 39.880001068115234 -72.93399810791014 L 40.48099899291992 -73.23000335693358 L 40.959999084472656 -73.44254302978514 L 41.10300064086914 -73.50599670410155 L 41.667999267578125 -73.72988128662108 L 41.74399948120117 -73.76000213623045 L 42.402000427246094 -73.9919967651367 L 43.07500076293945 -74.20099639892577 L 43.762001037597656 -74.38600158691405 L 44.46099853515625 -74.54799652099608 L 45.16999816894531 -74.68499755859374 L 45.888999938964844 -74.79799652099608 L 46.61399841308594 -74.88600158691405 L 47.3129997253418 -74.9462432861328 L 47.345001220703125 -74.94899749755858 L 48.07899856567383 -74.98699951171874 L 48.814998626708984 -74.99999999999999 L 49.152000427246094 -74.99404907226561 L 49.55099868774414 -74.98699951171874 L 50.28499984741211 -74.94899749755858 L 50.31800079345703 -74.94615936279295 L 51.01599884033203 -74.88600158691405 L 51.74100112915039 -74.79799652099608 L 52.459999084472656 -74.68499755859374 L 53.16899871826172 -74.54799652099608 L 53.86800003051758 -74.38600158691405 L 54.55500030517578 -74.20099639892577 L 55.22800064086914 -73.9919967651367 L 55.88600158691406 -73.76000213623045 L 55.96200180053711 -73.72988128662108 L 56.527000427246094 -73.50599670410155 L 57.14899826049805 -73.23000335693358 L 57.34400177001953 -73.13395690917967 L 57.75 -72.93399810791014 L 58.08000183105469 -72.75395202636717 L 58.33100128173828 -72.6169967651367 L 58.88800048828125 -72.27999877929686 L 59.422000885009766 -71.9250030517578 L 59.92900085449219 -71.55100250244139 L 60.40999984741211 -71.16100311279295 L 60.862998962402344 -70.75499725341795 L 61.2869987487793 -70.33300018310545 L 61.680999755859375 -69.8980026245117 L 61.89653015136719 -69.63200378417967 L 62.04399871826172 -69.44999694824217 L 62.375 -68.98899841308592 L 62.67300033569336 -68.5179977416992 L 62.9379997253418 -68.03700256347655 L 63.16899871826172 -67.54799652099608 L 63.3650016784668 -67.05100250244139 L 63.527000427246094 -66.54799652099608 L 63.65299987792969 -66.04100036621092 L 63.74176788330078 -65.53600311279295 L 63.74300003051758 -65.52899932861327 L 63.797000885009766 -65.01499938964842 L 63.797523498535156 -64.99999999999999 L 63.814998626708984 -64.99999999999999 L 63.814998626708984 -64.49999999999999 L 63.814998626708984 -64.15633392333983 L 63.814998626708984 -63.88059997558592 L 63.814998626708984 -63.610858917236314 L 63.814998626708984 -63.34622192382811 L 63.814998626708984 -63.09007263183592 L 63.814998626708984 -62.81950759887694 L 63.814998626708984 -61.43999862670897 L 63.814998626708984 -57.34400177001952 L 63.814998626708984 -53.999999999999986 L 63.814998626708984 -28.999999999999993 L 63.814998626708984 50.999999999999986 L 33.814998626708984 50.999999999999986 M -47.104000091552734 -66.8459014892578 L -47 -66.83899688720702 L -46.80400085449219 -66.85199737548827 L -46.611000061035156 -66.88999938964842 L -46.42499923706055 -66.95300292968749 L -46.249000549316406 -67.04000091552733 L -46.084999084472656 -67.1490020751953 L -45.9379997253418 -67.27899932861327 L -45.80799865722656 -67.42700195312499 L -45.70301055908203 -67.58399963378905 L -45.69900131225586 -67.58999633789061 L -45.61199951171875 -67.76599884033202 L -45.54899978637695 -67.95200347900389 L -45.5099983215332 -68.14499664306639 L -45.49800109863281 -68.34100341796874 L -45.5099983215332 -68.53700256347655 L -45.54899978637695 -68.73000335693358 L -45.61199951171875 -68.91600036621092 L -45.69900131225586 -69.09200286865233 L -45.80799865722656 -69.25599670410155 L -45.9379997253418 -69.40399932861327 L -46.084999084472656 -69.53299713134764 L -46.23395538330078 -69.63200378417967 L -46.249000549316406 -69.64199829101561 L -46.42499923706055 -69.72899627685545 L -46.611000061035156 -69.79299926757811 L -46.80400085449219 -69.83100128173827 L -47 -69.84400177001952 L -47.19599914550781 -69.83100128173827 L -47.388999938964844 -69.79299926757811 L -47.57500076293945 -69.72899627685545 L -47.750999450683594 -69.64199829101561 L -47.76604461669922 -69.63200378417967 L -47.915000915527344 -69.53299713134764 L -48.0620002746582 -69.40399932861327 L -48.19200134277344 -69.25599670410155 L -48.30099868774414 -69.09200286865233 L -48.38800048828125 -68.91600036621092 L -48.45100021362305 -68.73000335693358 L -48.4900016784668 -68.53700256347655 L -48.50299835205078 -68.34100341796874 L -48.4900016784668 -68.14499664306639 L -48.45100021362305 -67.95200347900389 L -48.38800048828125 -67.76599884033202 L -48.30099868774414 -67.58999633789061 L -48.29698944091797 -67.58399963378905 L -48.19200134277344 -67.42700195312499 L -48.0620002746582 -67.27899932861327 L -47.915000915527344 -67.1490020751953 L -47.750999450683594 -67.04000091552733 L -47.57500076293945 -66.95300292968749 L -47.388999938964844 -66.88999938964842 L -47.19599914550781 -66.85199737548827 L -47.104000091552734 -66.8459014892578 M 50.00699996948242 -67.42700195312499 L 50.11198806762695 -67.58399963378905 L 50.11600112915039 -67.58999633789061 L 50.202999114990234 -67.76599884033202 L 50.26599884033203 -67.95200347900389 L 50.30500030517578 -68.14499664306639 L 50.31800079345703 -68.34100341796874 L 50.30500030517578 -68.53700256347655 L 50.26599884033203 -68.73000335693358 L 50.202999114990234 -68.91600036621092 L 50.11600112915039 -69.09200286865233 L 50.00699996948242 -69.25599670410155 L 49.87699890136719 -69.40399932861327 L 49.72999954223633 -69.53299713134764 L 49.58104705810547 -69.63200378417967 L 49.566001892089844 -69.64199829101561 L 49.38999938964844 -69.72899627685545 L 49.20399856567383 -69.79299926757811 L 49.152000427246094 -69.80323791503905 L 49.01100158691406 -69.83100128173827 L 48.814998626708984 -69.84400177001952 L 48.61899948120117 -69.83100128173827 L 48.42599868774414 -69.79299926757811 L 48.2400016784668 -69.72899627685545 L 48.06399917602539 -69.64199829101561 L 48.048954010009766 -69.63200378417967 L 47.900001525878906 -69.53299713134764 L 47.75299835205078 -69.40399932861327 L 47.62300109863281 -69.25599670410155 L 47.513999938964844 -69.09200286865233 L 47.426998138427734 -68.91600036621092 L 47.36399841308594 -68.73000335693358 L 47.32500076293945 -68.53700256347655 L 47.3129997253418 -68.34100341796874 L 47.32500076293945 -68.14499664306639 L 47.36399841308594 -67.95200347900389 L 47.426998138427734 -67.76599884033202 L 47.513999938964844 -67.58999633789061 L 47.51801300048828 -67.58399963378905 L 47.62300109863281 -67.42700195312499 L 47.75299835205078 -67.27899932861327 L 47.900001525878906 -67.1490020751953 L 48.06399917602539 -67.04000091552733 L 48.2400016784668 -66.95300292968749 L 48.42599868774414 -66.88999938964842 L 48.61899948120117 -66.85199737548827 L 48.814998626708984 -66.83899688720702 L 49.01100158691406 -66.85199737548827 L 49.152000427246094 -66.87976074218749 L 49.20399856567383 -66.88999938964842 L 49.38999938964844 -66.95300292968749 L 49.566001892089844 -67.04000091552733 L 49.72999954223633 -67.1490020751953 L 49.87699890136719 -67.27899932861327 L 50.00699996948242 -67.42700195312499 M 1.1920000314712524 -67.42700195312499 L 1.296987771987915 -67.58399963378905 L 1.3009999990463257 -67.58999633789061 L 1.3880000114440918 -67.76599884033202 L 1.4509999752044678 -67.95200347900389 L 1.4900000095367432 -68.14499664306639 L 1.503000020980835 -68.34100341796874 L 1.4900000095367432 -68.53700256347655 L 1.4509999752044678 -68.73000335693358 L 1.3880000114440918 -68.91600036621092 L 1.3009999990463257 -69.09200286865233 L 1.1920000314712524 -69.25599670410155 L 1.062000036239624 -69.40399932861327 L 0.9150000214576721 -69.53299713134764 L 0.766045868396759 -69.63200378417967 L 0.7509999871253967 -69.64199829101561 L 0.574999988079071 -69.72899627685545 L 0.3889999985694885 -69.79299926757811 L 0.19599999487400055 -69.83100128173827 L 0 -69.84400177001952 L -0.19599999487400055 -69.83100128173827 L -0.3889999985694885 -69.79299926757811 L -0.574999988079071 -69.72899627685545 L -0.7509999871253967 -69.64199829101561 L -0.766045868396759 -69.63200378417967 L -0.9150000214576721 -69.53299713134764 L -1.062000036239624 -69.40399932861327 L -1.1920000314712524 -69.25599670410155 L -1.3009999990463257 -69.09200286865233 L -1.3880000114440918 -68.91600036621092 L -1.4509999752044678 -68.73000335693358 L -1.4900000095367432 -68.53700256347655 L -1.503000020980835 -68.34100341796874 L -1.4900000095367432 -68.14499664306639 L -1.4509999752044678 -67.95200347900389 L -1.3880000114440918 -67.76599884033202 L -1.3009999990463257 -67.58999633789061 L -1.296987771987915 -67.58399963378905 L -1.1920000314712524 -67.42700195312499 L -1.062000036239624 -67.27899932861327 L -0.9150000214576721 -67.1490020751953 L -0.7509999871253967 -67.04000091552733 L -0.574999988079071 -66.95300292968749 L -0.3889999985694885 -66.88999938964842 L -0.19599999487400055 -66.85199737548827 L 0 -66.83899688720702 L 0.19599999487400055 -66.85199737548827 L 0.3889999985694885 -66.88999938964842 L 0.574999988079071 -66.95300292968749 L 0.7509999871253967 -67.04000091552733 L 0.9150000214576721 -67.1490020751953 L 1.062000036239624 -67.27899932861327 L 1.1920000314712524 -67.42700195312499 z" fill="none" stroke="rgb(255,0,0)" stroke-width="0.001mm" />
</svg>